# xmcd
# 
# Track frame offsets:
#     150
#     13363
#     31908
#     52693
#     75245
#     104285
#     120495
#     139750
#     164733
#     184681
#     200558
#     224016
#     246283
# 
# Disc length: 3558
# 
# Revision: 26
# Processed by: cddbd v1.5.2PL0 Copyright (c) Steve Scherf et al.
# Submitted via: fre:ac v1.0.31
# 
DISCID=b20de40d
DTITLE=Diana Krall - All For You
DYEAR=1996
DGENRE=Jazz
TTITLE0=I'm An Errand Girl For Rhythm
TTITLE1=Gee Baby, Ain't I Good To You
TTITLE2=You Call It Madness
TTITLE3=Frim Fram Sauce
TTITLE4=Boulevard Of Broken Dreams
TTITLE5=Baby Baby All The Time
TTITLE6=Hit That Jive Jack
TTITLE7=You're Looking At Me
TTITLE8=I'm Thru With Love
TTITLE9=Deed I Do
TTITLE10=A Blossom Fell
TTITLE11=If I Had You
TTITLE12=When I Grow Too Old To Dream
EXTD=
EXTT0=
EXTT1=
EXTT2=
EXTT3=
EXTT4=
EXTT5=
EXTT6=
EXTT7=
EXTT8=
EXTT9=
EXTT10=
EXTT11=
EXTT12=
PLAYORDER=
